<mxfile host="app.diagrams.net" modified="2021-04-29T16:26:49.777Z" agent="5.0 (Macintosh)" etag="r3NM4cLDpcf05kPevbvC" version="14.6.6" type="github">
  <diagram id="d7Q_aGtVNcbp0Rg_WWwG" name="Page-1">
    <mxGraphModel dx="1186" dy="651" grid="1" gridSize="10" guides="1" tooltips="1" connect="1" arrows="1" fold="1" page="1" pageScale="1" pageWidth="850" pageHeight="1100" math="0" shadow="0">
      <root>
        <mxCell id="0" />
        <mxCell id="1" parent="0" />
        <mxCell id="xYHDsfUITuERWsgzVak8-1" value="&lt;b&gt;&lt;u&gt;&lt;font style=&quot;font-size: 24px&quot;&gt;ProjectX&lt;/font&gt;&lt;/u&gt;&lt;/b&gt;" style="text;html=1;strokeColor=none;fillColor=none;align=center;verticalAlign=middle;whiteSpace=wrap;rounded=0;" vertex="1" parent="1">
          <mxGeometry x="340" y="10" width="150" height="60" as="geometry" />
        </mxCell>
        <mxCell id="xYHDsfUITuERWsgzVak8-2" value="&lt;div&gt;company want to raise&lt;/div&gt;&lt;div&gt;Money&lt;br&gt;&lt;/div&gt;" style="rounded=0;whiteSpace=wrap;html=1;" vertex="1" parent="1">
          <mxGeometry x="20" y="210" width="140" height="60" as="geometry" />
        </mxCell>
        <mxCell id="xYHDsfUITuERWsgzVak8-5" value="" style="endArrow=classic;html=1;" edge="1" parent="1">
          <mxGeometry relative="1" as="geometry">
            <mxPoint x="170" y="239.5" as="sourcePoint" />
            <mxPoint x="270" y="239.5" as="targetPoint" />
          </mxGeometry>
        </mxCell>
        <mxCell id="xYHDsfUITuERWsgzVak8-7" value="CrowdX" style="rounded=0;whiteSpace=wrap;html=1;" vertex="1" parent="1">
          <mxGeometry x="270" y="220" width="120" height="40" as="geometry" />
        </mxCell>
        <mxCell id="xYHDsfUITuERWsgzVak8-8" value="" style="shape=singleArrow;direction=south;whiteSpace=wrap;html=1;" vertex="1" parent="1">
          <mxGeometry x="340" y="260" width="10" height="100" as="geometry" />
        </mxCell>
        <mxCell id="xYHDsfUITuERWsgzVak8-9" value="&lt;div&gt;Issue a bond &lt;br&gt;&lt;/div&gt;&lt;div&gt;to investor&lt;br&gt;&lt;/div&gt;" style="rounded=1;whiteSpace=wrap;html=1;" vertex="1" parent="1">
          <mxGeometry x="292.5" y="360" width="105" height="50" as="geometry" />
        </mxCell>
        <mxCell id="xYHDsfUITuERWsgzVak8-11" value="" style="html=1;shadow=0;dashed=0;align=center;verticalAlign=middle;shape=mxgraph.arrows2.arrow;dy=0.67;dx=20;notch=0;" vertex="1" parent="1">
          <mxGeometry x="400" y="380" width="210" height="10" as="geometry" />
        </mxCell>
        <mxCell id="xYHDsfUITuERWsgzVak8-12" value="" style="html=1;shadow=0;dashed=0;align=center;verticalAlign=middle;shape=mxgraph.arrows2.arrow;dy=0.6;dx=43;direction=south;notch=1;" vertex="1" parent="1">
          <mxGeometry x="340" y="410" width="10" height="140" as="geometry" />
        </mxCell>
        <mxCell id="xYHDsfUITuERWsgzVak8-13" value="Maturity date" style="rounded=0;whiteSpace=wrap;html=1;" vertex="1" parent="1">
          <mxGeometry x="285" y="550" width="120" height="50" as="geometry" />
        </mxCell>
        <mxCell id="xYHDsfUITuERWsgzVak8-14" value="&lt;div&gt;&lt;font style=&quot;font-size: 14px&quot;&gt;&lt;br&gt;&lt;/font&gt;&lt;/div&gt;&lt;div&gt;&lt;font style=&quot;font-size: 14px&quot;&gt;&lt;br&gt;&lt;/font&gt;&lt;/div&gt;&lt;div&gt;&lt;font style=&quot;font-size: 14px&quot;&gt;Bond Market&lt;/font&gt;&lt;/div&gt;&lt;div&gt;&lt;font style=&quot;font-size: 14px&quot;&gt;mbondX&lt;br&gt;&lt;/font&gt;&lt;/div&gt;&lt;div&gt;&lt;br&gt;&lt;/div&gt;&lt;div&gt;&lt;br&gt;&lt;/div&gt;" style="rounded=0;whiteSpace=wrap;html=1;" vertex="1" parent="1">
          <mxGeometry x="610" y="360" width="120" height="70" as="geometry" />
        </mxCell>
        <mxCell id="xYHDsfUITuERWsgzVak8-15" value="claim their token" style="text;html=1;align=center;verticalAlign=middle;resizable=0;points=[];autosize=1;strokeColor=none;" vertex="1" parent="1">
          <mxGeometry x="350" y="450" width="100" height="20" as="geometry" />
        </mxCell>
        <mxCell id="xYHDsfUITuERWsgzVak8-16" value="sell bond on bond market" style="text;html=1;align=center;verticalAlign=middle;resizable=0;points=[];autosize=1;strokeColor=none;" vertex="1" parent="1">
          <mxGeometry x="405" y="360" width="150" height="20" as="geometry" />
        </mxCell>
        <mxCell id="xYHDsfUITuERWsgzVak8-18" style="edgeStyle=orthogonalEdgeStyle;rounded=0;orthogonalLoop=1;jettySize=auto;html=1;exitX=0.5;exitY=1;exitDx=0;exitDy=0;" edge="1" parent="1" source="xYHDsfUITuERWsgzVak8-14" target="xYHDsfUITuERWsgzVak8-14">
          <mxGeometry relative="1" as="geometry" />
        </mxCell>
      </root>
    </mxGraphModel>
  </diagram>
</mxfile>
